<?xml version="1.0" encoding="iso-8859-1"?>
<!-- Uploaded to: SVG Repo, www.svgrepo.com, Generator: SVG Repo Mixer Tools -->
<svg height="800px" width="800px" version="1.1" id="Layer_1" xmlns="http://www.w3.org/2000/svg" xmlns:xlink="http://www.w3.org/1999/xlink" 
	 viewBox="0 0 512 512" xml:space="preserve">
<polygon style="fill:#FFFFFF;" points="6,409.377 6,102.632 440.256,103.264 440.256,409.377 "/>
<path style="fill:#333333;" d="M12,108.64l422.256,0.608v294.128H12V108.64 M0,96.624v318.752h446.256V97.264L0,96.624z"/>
<polygon style="fill:#E21B1B;" points="462.193,153.488 337.952,350.728 388.009,382.264 512,185.424 "/>
<g style="opacity:0.2;">
	<polygon style="fill:#FFFFFF;" points="16.064,208.408 16.064,112.657 111.816,112.657 	"/>
</g>
<polygon style="fill:#F91E1E;" points="462.193,153.488 337.952,350.728 362.976,366.296 486.968,169.456 "/>
<g>
	<path style="fill:#666666;" d="M89.776,254.848c10.1-9.519,21.558-17.483,34-23.632c7.886-4.265,16.553-6.891,25.48-7.72
		c1.709,0.039,3.329,0.767,4.496,2.016c1.379,1.334,2.495,2.917,3.288,4.664c0.648,1.218,1.058,2.548,1.208,3.92
		c0.08,1.237-0.538,2.416-1.6,3.056c-1.802,0.977-3.693,1.782-5.648,2.4l2.072,4.728c0.848,1.92,1.501,3.474,1.96,4.664
		c0.424,1.016,0.658,2.1,0.688,3.2c-0.994,3.846-2.917,7.39-5.6,10.32c-3.733,5.035-6.347,8.744-7.84,11.128
		c-1.575,2.658-2.355,5.712-2.248,8.8c0,5.685,2.611,8.528,7.832,8.528c5.382,0,13.798-5.035,25.248-15.104v7.032
		c-19.44,21.595-33.35,32.392-41.728,32.392c-2.505,0.235-4.944-0.884-6.4-2.936c-1.439-2.665-2.098-5.681-1.904-8.704
		c0.707-9.104,2.927-18.026,6.568-26.4c-11.2,12.453-19.539,21.309-25.016,26.568c-3.411,4.154-8.195,6.952-13.488,7.888
		c-1.691,0-3.803-1.459-6.336-4.376c-2.831-3.409-5.107-7.242-6.744-11.36c-1.948-4.573-2.949-9.493-2.944-14.464
		c-0.067-3.049,0.283-6.093,1.04-9.048c0.839-2.713,2.198-5.237,4-7.432C83.133,261.386,86.345,258.003,89.776,254.848z
		 M144.976,242.168c-14.96,6.355-29.266,14.155-42.712,23.288c-7.142,4.168-11.873,11.488-12.736,19.712
		c-0.081,2.092,0.354,4.171,1.264,6.056c0.589,1.401,1.946,2.325,3.464,2.36c1.587-0.242,3.113-0.785,4.496-1.6
		c8.329-4.979,15.803-11.264,22.136-18.616c6.694-7.659,14.728-18.059,24.104-31.2H144.976z"/>
	<path style="fill:#666666;" d="M248.384,275.712v7.488c-5.529,4.144-12.046,6.767-18.904,7.608
		c-2.738-0.03-5.456-0.455-8.072-1.264c-5.267,7.007-11.233,13.459-17.808,19.256c-4.099,3.735-9.387,5.9-14.928,6.112
		c-5.871-0.06-11.126-3.655-13.312-9.104c-3.323-7.054-4.921-14.798-4.664-22.592c0.474-14.003,4.265-27.693,11.064-39.944
		c7.384-14.424,16.331-27.994,26.68-40.464c9.146-11.273,19.274-21.715,30.264-31.2c5.43-5.757,12.261-10.008,19.824-12.336
		c3.307,0,4.96,2.266,4.96,6.8c0,20.139-25.822,55.259-77.464,105.36c-0.155,1.381-0.232,4.109-0.232,8.184
		c0,10.608,2.843,15.91,8.528,15.904c2.492-0.1,4.873-1.055,6.744-2.704c3.69-3.207,7.164-6.655,10.4-10.32
		c-1.488-2.876-2.426-6.004-2.768-9.224c0.277-4.998,2.087-9.788,5.184-13.72c3.325-4.776,7.302-9.063,11.816-12.736
		c2.63-2.657,5.958-4.516,9.6-5.36c3.147,0,4.723,2.266,4.728,6.8c-0.171,4.275-1.089,8.488-2.712,12.448
		c-2.221,5.72-4.86,11.268-7.896,16.6c0.995,0.854,2.033,1.656,3.112,2.4c1.059,0.567,2.257,0.825,3.456,0.744
		C240.491,280.114,244.802,278.468,248.384,275.712z M189.832,258.4c4.315-3.787,8.339-7.892,12.04-12.28
		c4.038-4.72,9.936-11.963,17.696-21.728c7.467-9.376,13.333-17.194,17.6-23.456c3.496-5.02,6.702-10.237,9.6-15.624
		c1.603-2.612,2.689-5.507,3.2-8.528c0-1.152-0.304-1.728-0.92-1.728c-1.691,0-5.205,2.784-10.544,8.352
		c-6.632,7.177-12.74,14.824-18.272,22.88c-9.434,13.408-16.266,23.485-20.496,30.232
		C195.483,243.345,192.153,250.701,189.832,258.4z"/>
	<path style="fill:#666666;" d="M317.777,275.712v7.72c-8.218,8.064-14.923,14.326-20.112,18.784
		c-4.468,3.962-9.337,7.448-14.528,10.4c-4.016,2.329-8.559,3.597-13.2,3.688c-4.388-0.07-8.572-1.869-11.64-5.008
		c-3.749-3.679-6.592-8.178-8.304-13.144c-2.017-5.52-3.033-11.355-3-17.232c-0.09-4.873,1.102-9.684,3.456-13.952
		c3.753-5.82,8.247-11.129,13.368-15.792c6.622-6.7,13.945-12.67,21.84-17.808c4.659-3.419,10.12-5.582,15.856-6.28
		c2.64-0.048,5.184,0.994,7.032,2.88c1.919,1.922,2.957,4.55,2.872,7.264c-0.433,3.746-1.734,7.341-3.8,10.496
		c-2.354,4.269-5.218,8.237-8.528,11.816c-3.157,3.338-5.656,5.008-7.496,5.008c-2,0-3-1.067-3-3.2
		c0.08-0.616,0.144-1.192,0.184-1.728c0.04-0.536,0.048-1.072,0.048-1.6c0-0.92-0.328-1.44-0.968-1.552
		c-0.885-0.057-1.754,0.256-2.4,0.864c-7.685,5.382-12.949,9.165-15.792,11.352c-2.541,1.891-4.81,4.122-6.744,6.632
		c-1.577,2.008-2.449,4.479-2.48,7.032c-0.16,4.14,1.432,8.157,4.384,11.064c3.07,2.904,7.185,4.443,11.408,4.264
		c6.195-0.407,12.195-2.33,17.472-5.6C302.137,287.251,310.185,281.779,317.777,275.712z"/>
</g>
</svg>