<svg version="1.1" viewBox="0 0 3.62 3.68" xmlns="http://www.w3.org/2000/svg"><path d="m3.33 0.28c-0.01-0.17-0.29-0.12-0.39-0.1-0.19 0.04-0.38 0.13-0.46 0.31-0.08 0.19-0.01 0.4 0 0.6 0.02 0.11 0.01 0.23-0.05 0.33s-0.18 0.15-0.3 0.18c-0.24 0.04-0.5-0.04-0.74 0.03-0.19 0.05-0.34 0.21-0.24 0.41 0.11 0.21 0.45 0.26 0.48 0.52 0.02 0.17-0.14 0.2-0.28 0.19-0.11-0.01-0.23-0.01-0.34-0.01-0.23 0.02-0.47 0.08-0.65 0.23-0.12 0.1-0.29 0.36-0.1 0.48 0.02 0.01 0.03-0.01 0.02-0.03-0.17-0.17 0.09-0.42 0.23-0.5 0.18-0.1 0.4-0.13 0.61-0.13 0.1 0 0.2 0.02 0.31 0.01 0.08 0 0.15-0.02 0.2-0.09 0.11-0.14-0.01-0.32-0.12-0.41-0.09-0.07-0.19-0.12-0.26-0.2-0.09-0.11-0.12-0.25 0-0.36 0.19-0.16 0.49-0.09 0.72-0.09 0.17 0 0.37-0.04 0.48-0.18 0.1-0.13 0.09-0.31 0.07-0.47-0.03-0.22-0.08-0.48 0.11-0.64 0.09-0.08 0.21-0.12 0.33-0.14 0.08-0.02 0.33-0.08 0.34 0.06 0 0.02 0.03 0.02 0.03 0z"></path></svg>