<svg version="1.1" viewBox="0 0 3.33 3.67" xmlns="http://www.w3.org/2000/svg"><path d="m3.02 0.45c-0.46 0.08-0.92 0.17-1.38 0.25-0.02 0-0.02 0.03-0.01 0.04 0.25 0.28 0.47 0.58 0.68 0.9 0-0.01 0.01-0.03 0.01-0.04-0.43 0.12-0.87 0.23-1.3 0.32-0.02 0.01-0.03 0.02-0.02 0.04 0.14 0.33 0.27 0.67 0.4 1 0-0.01 0.01-0.02 0.01-0.03-0.26 0.13-0.54 0.23-0.82 0.31-0.04 0.01-0.02 0.06 0.01 0.05 0.29-0.08 0.57-0.19 0.84-0.32 0.01 0 0.02-0.02 0.01-0.03-0.13-0.33-0.27-0.66-0.4-1-0.01 0.01-0.01 0.02-0.02 0.03 0.44-0.09 0.88-0.2 1.31-0.32 0.02 0 0.02-0.02 0.02-0.04-0.22-0.31-0.45-0.61-0.69-0.9 0 0.01-0.01 0.03-0.01 0.04 0.46-0.09 0.92-0.17 1.37-0.26 0.03 0 0.02-0.05-0.01-0.04z"></path></svg>