<?xml version="1.0" ?><!-- Uploaded to: SVG Repo, www.svgrepo.com, Generator: SVG Repo Mixer Tools -->
<svg fill="#000000" width="800px" height="800px" viewBox="0 0 64 64" xmlns="http://www.w3.org/2000/svg"><title/><path d="M32,3A29,29,0,1,0,61,32,29,29,0,0,0,32,3ZM58.91,34.08a38.24,38.24,0,0,0-19.57-1.36,75.27,75.27,0,0,0-3.47-7.93A62.24,62.24,0,0,0,52.3,14.23,26.88,26.88,0,0,1,59,32C59,32.7,59,33.39,58.91,34.08Zm-8-21.31A60.23,60.23,0,0,1,35,23,76.12,76.12,0,0,0,23,6.56a26.94,26.94,0,0,1,28,6.22ZM21,7.36A74.17,74.17,0,0,1,33.1,23.78a59.81,59.81,0,0,1-27.76,4A27.08,27.08,0,0,1,21,7.36ZM5,32c0-.77,0-1.54.1-2.3,2,.19,4,.31,5.94.31a61.79,61.79,0,0,0,23-4.45,73.28,73.28,0,0,1,3.34,7.59A38.51,38.51,0,0,0,13.14,51.3,26.91,26.91,0,0,1,5,32Zm9.66,20.67A36.5,36.5,0,0,1,38,35a74,74,0,0,1,3.94,22,26.92,26.92,0,0,1-27.31-4.42Zm29.28,3.54A76,76,0,0,0,40,34.62a36.23,36.23,0,0,1,18.69,1.49A27.07,27.07,0,0,1,43.93,56.21Z"/></svg>